<svg width="20" height="22" viewBox="0 0 20 22" fill="none" xmlns="http://www.w3.org/2000/svg">
<path d="M8.38889 0.597592C8.83974 0.211662 9.41038 0 10 0C10.5896 0 11.1603 0.211662 11.6111 0.597592L19.1111 7.02113C19.6744 7.50414 20 8.21398 20 8.96219V20.0251C20 20.5489 19.7951 21.0512 19.4305 21.4216C19.0658 21.7919 18.5713 22 18.0556 22H14.1667C13.651 22 13.1564 21.7919 12.7917 21.4216C12.4271 21.0512 12.2222 20.5489 12.2222 20.0251V13.8182C12.2222 13.7434 12.193 13.6716 12.1409 13.6187C12.0888 13.5658 12.0181 13.5361 11.9444 13.5361H8.05556C7.98188 13.5361 7.91123 13.5658 7.85914 13.6187C7.80704 13.6716 7.77778 13.7434 7.77778 13.8182V20.0251C7.77778 20.5489 7.57292 21.0512 7.20826 21.4216C6.84361 21.7919 6.34903 22 5.83333 22H1.94444C1.6891 22 1.43625 21.9489 1.20034 21.8497C0.964427 21.7504 0.750073 21.6049 0.569515 21.4216C0.388956 21.2382 0.24573 21.0205 0.148012 20.7809C0.0502946 20.5412 0 20.2844 0 20.0251V8.96219C0 8.21398 0.325555 7.50414 0.888889 7.02113L8.38889 0.597592ZM10.5367 1.89201C10.3864 1.76356 10.1964 1.69313 10 1.69313C9.80363 1.69313 9.61356 1.76356 9.46333 1.89201L1.96333 8.31442C1.87052 8.39377 1.79589 8.49275 1.74464 8.60444C1.6934 8.71614 1.66679 8.83784 1.66667 8.96106V20.024C1.66667 20.1797 1.79111 20.3061 1.94444 20.3061H5.83333C5.907 20.3061 5.97766 20.2764 6.02975 20.2235C6.08185 20.1705 6.11111 20.0988 6.11111 20.024V13.8171C6.11111 12.7258 6.98222 11.8422 8.05556 11.8422H11.9444C13.0178 11.8422 13.8889 12.7258 13.8889 13.8171V20.024C13.8889 20.1797 14.0133 20.3061 14.1667 20.3061H18.0556C18.1292 20.3061 18.1999 20.2764 18.252 20.2235C18.3041 20.1705 18.3333 20.0988 18.3333 20.024V8.96219C18.3332 8.83897 18.3066 8.71726 18.2554 8.60557C18.2041 8.49388 18.1295 8.3949 18.0367 8.31555L10.5367 1.89201Z" fill="white"/>
</svg>
